<svg xmlns="http://www.w3.org/2000/svg" viewBox="0 0 96 96">
  <title>compass</title>
  <g>
    <path d="M74,50a2,2,0,0,1,0-4h1.8987A28.0026,28.0026,0,0,0,50,20.1013V22a2,2,0,0,1-4,0V20.1013A28.0026,28.0026,0,0,0,20.1013,46H22a2,2,0,0,1,0,4H20.1013A28.0041,28.0041,0,0,0,46,75.8987V74a2,2,0,0,1,4,0v1.8987A28.0041,28.0041,0,0,0,75.8987,50ZM59.7578,38.8418,54.1,52.9844a2.0019,2.0019,0,0,1-1.1152,1.1133L38.8418,59.7539a1.9674,1.9674,0,0,1-.7422.1445,2,2,0,0,1-1.8574-2.7421L41.9,43.0156A1.9992,1.9992,0,0,1,43.0156,41.9l14.1426-5.6582a2,2,0,0,1,2.6,2.6Z" fill="#731FE6"/>
    <polygon points="44.488 47.316 41.689 54.309 48.683 51.511 44.488 47.316" fill="#731FE6"/>
    <path d="M48,8A40,40,0,1,0,88,48,40.0446,40.0446,0,0,0,48,8Zm0,72A32,32,0,1,1,80,48,32.0367,32.0367,0,0,1,48,80Z" fill="#731FE6"/>
    <polygon points="51.511 48.683 54.311 41.689 47.317 44.489 51.511 48.683" fill="#731FE6"/>
  </g>
</svg>
