<svg xmlns="http://www.w3.org/2000/svg" viewBox="0 0 96 96">
  <title>shrimp</title>
  <g>
    <path d="M72,70a1.9988,1.9988,0,0,0-2-2H62a6.0066,6.0066,0,0,0-6,6v8a6.0066,6.0066,0,0,0,6,6h8a1.9988,1.9988,0,0,0,2-2c0-5.5156-2.4863-8-8-8C69.5137,78,72,75.5156,72,70Z" fill="#646464"/>
    <path d="M37.7805,52.9324l-20.416-26.543A34.8833,34.8833,0,0,0,8,50a46.2029,46.2029,0,0,0,.4058,6H36.2271A6.9887,6.9887,0,0,1,37.7805,52.9324Z" fill="#646464"/>
    <path d="M36.29,60H9.1418c1.6238,6.8,5.3423,13.91,13.3055,18.6123L38.1135,64.4067A14.1508,14.1508,0,0,1,36.29,60Z" fill="#646464"/>
    <path d="M44,49.281V16H42a33.2445,33.2445,0,0,0-21.7,7.6443L40.9307,50.4668A18.216,18.216,0,0,1,44,49.281Z" fill="#646464"/>
    <path d="M80,8H62a2,2,0,0,0,0,4H80a4,4,0,0,1,0,8h-.0935c.0378-.6636.0935-1.3191.0935-2a1.9988,1.9988,0,0,0-2-2H48V48.4387A41.5084,41.5084,0,0,1,54,48c11.0972,0,22.87-9.4246,25.4607-24H80A8,8,0,0,0,80,8ZM62,28H58a2,2,0,0,1,0-4h4a2,2,0,0,1,0,4Z" fill="#646464"/>
    <path d="M40.5686,67.5784,26.2813,80.5334C31.37,82.689,37.8186,84,46,84h6V72H50.4453A14.4489,14.4489,0,0,1,40.5686,67.5784Z" fill="#646464"/>
  </g>
</svg>
