<svg xmlns="http://www.w3.org/2000/svg" viewBox="0 0 96 96">
  <title>oxygen</title>
  <g>
    <rect x="11" y="36" width="28" height="36" fill="#646464"/>
    <path d="M25,88A13.98,13.98,0,0,0,38.7979,76H11.2021A13.98,13.98,0,0,0,25,88Z" fill="#646464"/>
    <path d="M83,56.3684V34c0-13.5879-9.3437-22-18-22H59V10a2,2,0,0,0-4,0v2H27V10a2,2,0,0,0-4,0v2H13a2,2,0,0,0,0,4H23v4.1851A13.9757,13.9757,0,0,0,11.2021,32H38.7979A13.9757,13.9757,0,0,0,27,20.1851V16H55v4.1851A13.9757,13.9757,0,0,0,43.2021,32H70.7979A13.9757,13.9757,0,0,0,59,20.1851V16h6c6.7324,0,14,6.8828,14,18V56.3684a6,6,0,1,0,4,0Z" fill="#646464"/>
    <rect x="43" y="36" width="28" height="36" fill="#646464"/>
    <path d="M57,88A13.98,13.98,0,0,0,70.7979,76H43.2021A13.98,13.98,0,0,0,57,88Z" fill="#646464"/>
  </g>
</svg>
