<svg xmlns="http://www.w3.org/2000/svg" viewBox="0 0 96 96">
  <title>whale</title>
  <g>
    <path d="M70,40a1.9988,1.9988,0,0,0,2-2V18a2,2,0,0,1,4,0,2,2,0,0,0,4,0,6,6,0,0,0-12,0V38A1.9988,1.9988,0,0,0,70,40Z" fill="#646464"/>
    <path d="M54,20a1.9988,1.9988,0,0,0,2-2,2,2,0,0,1,4,0V38a2,2,0,0,0,4,0V18a6,6,0,0,0-12,0A1.9988,1.9988,0,0,0,54,20Z" fill="#646464"/>
    <path d="M80,44H42A14.017,14.017,0,0,1,28,30V27.8008A10.0209,10.0209,0,0,0,36,18V10a1.9988,1.9988,0,0,0-2-2H30a9.9855,9.9855,0,0,0-8,4.0078A9.9855,9.9855,0,0,0,14,8H10a1.9988,1.9988,0,0,0-2,2v8a10.0209,10.0209,0,0,0,8,9.8008v9.6948C16,48,27.2136,58.0591,36.2893,61.9915c10.8579,4.7045,26.0557,5.9162,49.2881,5.9941A21.8351,21.8351,0,0,0,88,58V52A8.01,8.01,0,0,0,80,44ZM74,56H70a2,2,0,0,1,0-4h4a2,2,0,0,1,0,4Z" fill="#646464"/>
    <path d="M16.8235,50.8274C19.2632,64.189,27.3523,78.7642,44,79.8694V86a1.9988,1.9988,0,0,0,2,2c9.4836,0,14.9409-2.5256,17.0137-8H66a21.9657,21.9657,0,0,0,16.9814-8.0308C45.3545,71.6943,28.5276,68.0776,16.8235,50.8274Z" fill="#646464"/>
  </g>
</svg>
