<svg xmlns="http://www.w3.org/2000/svg" viewBox="0 0 96 96">
  <title>life</title>
  <g>
    <path d="M54,80.0012H50a8.01,8.01,0,0,0,8,8H82a1.9988,1.9988,0,0,0,2-2v-12H60A6.0066,6.0066,0,0,1,54,80.0012Z" fill="#646464"/>
    <path d="M54,60.0012H50v4h4a6.0066,6.0066,0,0,1,6,6H84v-16H60A6.0066,6.0066,0,0,1,54,60.0012Z" fill="#646464"/>
    <path d="M82.8945,44.2122c-10.6406-5.32-12.9648-13.6016-7.1054-25.3165a1.9965,1.9965,0,0,0-.375-2.3085l-8-8A1.9806,1.9806,0,0,0,65.68,8.0266a2.01,2.01,0,0,0-1.4688,1.08l-14,28A2.0278,2.0278,0,0,0,50,38.0012v6h4a6.0066,6.0066,0,0,1,6,6H84v-4A2.0042,2.0042,0,0,0,82.8945,44.2122Z" fill="#646464"/>
    <rect x="40" y="68.0012" width="16" height="8" rx="2" ry="2" fill="#646464"/>
    <rect x="40" y="48.0012" width="16" height="8" rx="2" ry="2" fill="#646464"/>
    <polygon points="60.291 8.001 35.71 8.001 48.001 32.585 60.291 8.001" fill="#646464"/>
    <path d="M36,74.0012H12v12a1.9988,1.9988,0,0,0,2,2H38a8.01,8.01,0,0,0,8-8H42A6.0066,6.0066,0,0,1,36,74.0012Z" fill="#646464"/>
    <path d="M42,64.0012h4v-4H42a6.0066,6.0066,0,0,1-6-6H12v16H36A6.0066,6.0066,0,0,1,42,64.0012Z" fill="#646464"/>
    <path d="M42,44.0012h4v-6a2.0278,2.0278,0,0,0-.2109-.8945l-14-28a2.01,2.01,0,0,0-1.4688-1.08,1.9806,1.9806,0,0,0-1.7344.5606l-8,8a1.9965,1.9965,0,0,0-.375,2.3085c5.8594,11.7149,3.5352,19.9961-7.1054,25.3165A2.0042,2.0042,0,0,0,12,46.0012v4H36A6.0066,6.0066,0,0,1,42,44.0012Z" fill="#646464"/>
  </g>
</svg>
