<svg xmlns="http://www.w3.org/2000/svg" viewBox="0 0 96 96">
  <title>boat</title>
  <g>
    <path d="M22,53.9565H36V11.7048c-3.8494,15.3945-7.8428,31.2664-15.4141,38.8376A2,2,0,0,0,22,53.9565Z" fill="#731FE6"/>
    <path d="M59.6016,53.1557c6.4765-8.6347,7.7265-20.084,3.1836-29.166C58.5984,15.6123,50.343,10.6494,40,10.0715v43.885H58A2.0055,2.0055,0,0,0,59.6016,53.1557Z" fill="#731FE6"/>
    <path d="M15.6133,75.6577a2.0052,2.0052,0,0,0,1.75,1.1054l.6028.012A14.0708,14.0708,0,0,1,26,73.9565a14.3328,14.3328,0,0,1,8.3125,2.9961c.0688.0459.1545.0994.23.1489l2.8018.0552.0429-.0244a20.3771,20.3771,0,0,1,10.6094-3.1758A20.3882,20.3882,0,0,1,58.6094,77.13c.2578.1455.5561.3118.8337.4615l1.2661.0249c.2908-.2044.6616-.4529.9588-.6524A14.3729,14.3729,0,0,1,70,73.9565a14.52,14.52,0,0,1,8.332,3.01c.251.1672.56.37.8494.55a1.9646,1.9646,0,0,0,.6077-.6636l.5976-1.1934v-.0019L87.7891,60.851A1.999,1.999,0,0,0,86,57.9565H10A1.999,1.999,0,0,0,8.2109,60.851Z" fill="#731FE6"/>
    <path d="M90,77.9565c-2.6055,0-4.4687,1.24-6.1094,2.3359-1.34.8926-2.4961,1.6641-3.8906,1.6641s-2.5508-.7715-3.8906-1.6641C74.4688,79.1967,72.6055,77.9565,70,77.9565s-4.4648,1.24-6.1094,2.334c-1.3359.8926-2.4922,1.6621-3.8906,1.6621a7.6386,7.6386,0,0,1-3.3555-1.3379,16.4082,16.4082,0,0,0-8.6406-2.6582h-.0078a16.42,16.42,0,0,0-8.6406,2.6582A7.6381,7.6381,0,0,1,36,81.9526h-.0039c-1.3945,0-2.5508-.77-3.8867-1.6621-1.6446-1.0938-3.5039-2.334-6.1094-2.334s-4.4687,1.24-6.1094,2.3359c-1.34.8926-2.4961,1.6641-3.8906,1.6641s-2.5508-.7715-3.8906-1.6641C10.4688,79.1967,8.6055,77.9565,6,77.9565a2,2,0,0,0,0,4c1.3945,0,2.5508.7715,3.8906,1.6641,1.6407,1.0957,3.5039,2.3359,6.1094,2.3359s4.4688-1.24,6.1094-2.3359c1.34-.8926,2.4961-1.6641,3.8906-1.6641s2.5508.7715,3.8906,1.6621c1.6407,1.0938,3.5039,2.334,6.1055,2.334H36a10.7945,10.7945,0,0,0,5.3242-1.8555,12.6565,12.6565,0,0,1,6.6719-2.1406h.0078a12.6565,12.6565,0,0,1,6.6719,2.1406A10.7945,10.7945,0,0,0,60,85.9526h.0039c2.6016,0,4.4649-1.24,6.1055-2.334,1.34-.8906,2.4961-1.6621,3.8906-1.6621s2.5508.7715,3.8906,1.6641c1.6407,1.0957,3.5039,2.3359,6.1094,2.3359s4.4688-1.24,6.1094-2.3359c1.34-.8926,2.4961-1.6641,3.8906-1.6641a2,2,0,0,0,0-4Z" fill="#731FE6"/>
  </g>
</svg>
