<svg xmlns="http://www.w3.org/2000/svg" viewBox="0 0 96 96">
  <title>get-involved</title>
  <g>
    <path d="M89.4757,71.334,75.3339,57.1922a1.9979,1.9979,0,0,0-1.414-.5857H63.435l9.0706,9.0707a2,2,0,1,1-2.8283,2.8285l-9.0706-9.0706V69.92a1.998,1.998,0,0,0,.5854,1.4143L75.3339,85.4758a1.9987,1.9987,0,0,0,2.8283,0L89.4757,74.1623A1.9987,1.9987,0,0,0,89.4757,71.334Z" fill="#731FE6"/>
    <path d="M75.8193,19.0092l2.8283,2.8283a2,2,0,0,0,2.8283-2.8283l-8.485-8.4852a2,2,0,0,0-2.8285,2.8286l2.8285,2.8283L48,41.1716,23.0091,16.1809l2.8285-2.8283a2,2,0,1,0-2.8285-2.8286l-8.485,8.4852a2,2,0,0,0,2.8283,2.8283l2.8283-2.8283L45.1717,44,35.9646,53.207a5.6789,5.6789,0,0,1,2.8286,2.8283L48,46.8284l9.2068,9.2069a5.6789,5.6789,0,0,1,2.8286-2.8283L50.8283,44Z" fill="#731FE6"/>
    <path d="M23.4944,68.5057a1.9989,1.9989,0,0,1,0-2.8285l9.0706-9.0707H22.08a1.9979,1.9979,0,0,0-1.414.5857L6.5243,71.334a1.9987,1.9987,0,0,0,0,2.8283L17.8378,85.4758a1.9987,1.9987,0,0,0,2.8283,0L34.8079,71.334a1.998,1.998,0,0,0,.5854-1.4143V59.4351l-9.0706,9.0706A1.9987,1.9987,0,0,1,23.4944,68.5057Z" fill="#731FE6"/>
  </g>
</svg>
