<?xml version="1.0" encoding="UTF-8"?>
<svg id="OBJECT" xmlns="http://www.w3.org/2000/svg" xmlns:xlink="http://www.w3.org/1999/xlink" viewBox="0 0 32 32">
  <defs>
    <style>
      .cls-1 {
        fill: url(#New_Gradient_Swatch-2);
      }

      .cls-1, .cls-2 {
        stroke-width: 0px;
      }

      .cls-2 {
        fill: url(#New_Gradient_Swatch);
      }
    </style>
    <linearGradient id="New_Gradient_Swatch" data-name="New Gradient Swatch" x1="-5.59" y1="9.5" x2="32.81" y2="9.5" gradientUnits="userSpaceOnUse">
      <stop offset="0" stop-color="#7738c8"/>
      <stop offset="1" stop-color="#461d93"/>
    </linearGradient>
    <linearGradient id="New_Gradient_Swatch-2" data-name="New Gradient Swatch" y1="24.47" x2="32.81" y2="24.47" xlink:href="#New_Gradient_Swatch"/>
  </defs>
  <path class="cls-2" d="m21.5,18c4.69,0,8.5-3.81,8.5-8.5S26.19,1,21.5,1s-8.5,3.81-8.5,8.5,3.81,8.5,8.5,8.5Zm-5.45-4.97c.53.1,1.09.19,1.67.25.07.58.15,1.14.25,1.67-.77-.5-1.42-1.16-1.92-1.92Zm6.72,2.85c-.41.08-.84.13-1.27.13s-.86-.04-1.27-.13c-.19-.72-.35-1.54-.47-2.42.57.03,1.15.05,1.74.05s1.17-.02,1.74-.05c-.12.88-.28,1.7-.47,2.42Zm5.1-7.65c.08.41.13.84.13,1.27s-.04.86-.13,1.27c-.72.19-1.54.35-2.42.47.03-.57.05-1.15.05-1.74s-.02-1.17-.05-1.74c.88.12,1.7.28,2.42.47Zm-.92-2.26c-.53-.1-1.09-.19-1.67-.25-.07-.58-.15-1.14-.25-1.67.77.5,1.42,1.16,1.92,1.92Zm-1.67,7.31c.58-.07,1.14-.15,1.67-.25-.5.77-1.16,1.42-1.92,1.92.1-.53.19-1.09.25-1.67Zm-5.05-10.15c.41-.08.84-.13,1.27-.13s.86.04,1.27.13c.19.72.35,1.54.47,2.42-.57-.03-1.15-.05-1.74-.05s-1.17.02-1.74.05c.12-.88.28-1.7.47-2.42Zm-.67,4.43c.63-.04,1.28-.06,1.94-.06s1.31.02,1.94.06c.04.63.06,1.28.06,1.94s-.02,1.31-.06,1.94c-.63.04-1.28.06-1.94.06s-1.31-.02-1.94-.06c-.04-.63-.06-1.28-.06-1.94s.02-1.31.06-1.94Zm-1.59-3.51c-.1.53-.19,1.09-.25,1.67-.58.07-1.14.15-1.67.25.5-.77,1.16-1.42,1.92-1.92Zm-2.97,5.45c0-.44.04-.86.13-1.27.72-.19,1.54-.35,2.42-.47-.03.57-.05,1.15-.05,1.74s.02,1.17.05,1.74c-.88-.12-1.7-.28-2.42-.47-.08-.41-.13-.84-.13-1.27Z"/>
  <path class="cls-1" d="m30.54,19.28c-.64-.91-1.79-1.29-2.84-.94l-8.07,2.63-.93-1.16c-.95-1.19-2.37-1.87-3.89-1.87h-3.32c-.94,0-1.84.45-2.4,1.2l-1.26,1.68h-.92c-.3-1.05-1.25-1.83-2.4-1.83h-2.5c-.55,0-1,.45-1,1v10c0,.55.45,1,1,1h2.5c1.14,0,2.1-.78,2.4-1.83h1.92l.74.35c1.2.56,2.53.86,3.86.86h2.62c1.83,0,3.59-.55,5.1-1.58l8.77-5.99c.56-.38.94-.97,1.06-1.64.12-.67-.03-1.35-.42-1.9ZM5,28.5c0,.28-.22.5-.5.5h-1.5v-8h1.5c.28,0,.5.22.5.5v7Zm23.99-7.67c-.01.08-.06.23-.22.34l-8.77,5.99c-1.18.8-2.55,1.23-3.98,1.23h-2.62c-1.03,0-2.07-.23-3.01-.67l-.94-.44c-.13-.06-.28-.1-.43-.1h-2.04v-4.35h1.32c.31,0,.61-.15.8-.4l1.56-2.08c.19-.25.49-.4.8-.4h3.32c.91,0,1.76.41,2.34,1.12l1.41,1.76c.24.31.18.76-.12,1.01-.25.21-.6.23-.87.06l-2.12-1.35c-.47-.3-1.08-.16-1.38.31-.3.47-.16,1.08.31,1.38l2.12,1.35c.45.29.96.43,1.47.43.63,0,1.25-.22,1.76-.64.78-.66,1.1-1.66.91-2.61l7.68-2.51c.22-.07.46,0,.59.2.11.16.1.31.09.4Z"/>
</svg>