<svg xmlns="http://www.w3.org/2000/svg" viewBox="0 0 96 96">
  <title>submarine</title>
  <g>
    <path d="M8.1951,48.0591,19.6822,39.854l-4.2681-4.2681A1.9985,1.9985,0,0,0,14,35H6a1.9994,1.9994,0,0,0-1.8614,2.73Z" fill="#731FE6"/>
    <path d="M4.1387,76.27A1.9994,1.9994,0,0,0,6,79h8a1.9986,1.9986,0,0,0,1.414-.586l4.2681-4.268L8.1951,65.9409Z" fill="#731FE6"/>
    <path d="M70,35H34a1.999,1.999,0,0,0-1.1621.3731l-28,20a1.9985,1.9985,0,0,0,0,3.2539l28,20A1.999,1.999,0,0,0,34,79H70a22,22,0,0,0,0-44ZM40,61a4,4,0,1,1,4-4A4,4,0,0,1,40,61Zm16,0a4,4,0,1,1,4-4A4,4,0,0,1,56,61Zm16,0a4,4,0,1,1,4-4A4,4,0,0,1,72,61Z" fill="#731FE6"/>
    <path d="M63.7891,24.1055A2.001,2.001,0,0,0,62,23H58a4.004,4.004,0,0,1,4-4,2,2,0,0,0,0-4,8.0092,8.0092,0,0,0-8,8H50a2.0008,2.0008,0,0,0-1.789,1.1055L44.7637,31H67.2363Z" fill="#731FE6"/>
  </g>
</svg>
