<?xml version="1.0" encoding="UTF-8"?>
<svg id="OBJECT" xmlns="http://www.w3.org/2000/svg" xmlns:xlink="http://www.w3.org/1999/xlink" viewBox="0 0 32 32">
  <defs>
    <style>
      .cls-1 {
        fill: url(#New_Gradient_Swatch-8);
      }

      .cls-1, .cls-2, .cls-3, .cls-4, .cls-5, .cls-6, .cls-7, .cls-8 {
        stroke-width: 0px;
      }

      .cls-2 {
        fill: url(#New_Gradient_Swatch-6);
      }

      .cls-3 {
        fill: url(#New_Gradient_Swatch-7);
      }

      .cls-4 {
        fill: url(#New_Gradient_Swatch-4);
      }

      .cls-5 {
        fill: url(#New_Gradient_Swatch-5);
      }

      .cls-6 {
        fill: url(#New_Gradient_Swatch-2);
      }

      .cls-7 {
        fill: url(#New_Gradient_Swatch-3);
      }

      .cls-8 {
        fill: url(#New_Gradient_Swatch);
      }
    </style>
    <linearGradient id="New_Gradient_Swatch" data-name="New Gradient Swatch" x1="-2.32" y1="5" x2="32.45" y2="5" gradientUnits="userSpaceOnUse">
      <stop offset="0" stop-color="#7738c8"/>
      <stop offset="1" stop-color="#461d93"/>
    </linearGradient>
    <linearGradient id="New_Gradient_Swatch-2" data-name="New Gradient Swatch" y1="12" y2="12" xlink:href="#New_Gradient_Swatch"/>
    <linearGradient id="New_Gradient_Swatch-3" data-name="New Gradient Swatch" y1="12" y2="12" xlink:href="#New_Gradient_Swatch"/>
    <linearGradient id="New_Gradient_Swatch-4" data-name="New Gradient Swatch" y1="17" y2="17" xlink:href="#New_Gradient_Swatch"/>
    <linearGradient id="New_Gradient_Swatch-5" data-name="New Gradient Swatch" y1="16" x2="32.45" y2="16" xlink:href="#New_Gradient_Swatch"/>
    <linearGradient id="New_Gradient_Swatch-6" data-name="New Gradient Swatch" y1="23.5" x2="32.45" y2="23.5" xlink:href="#New_Gradient_Swatch"/>
    <linearGradient id="New_Gradient_Swatch-7" data-name="New Gradient Swatch" y1="23.5" y2="23.5" xlink:href="#New_Gradient_Swatch"/>
    <linearGradient id="New_Gradient_Swatch-8" data-name="New Gradient Swatch" y1="23.5" y2="23.5" xlink:href="#New_Gradient_Swatch"/>
  </defs>
  <path class="cls-8" d="m5,6h.5c.55,0,1-.45,1-1s-.45-1-1-1h-.5c-.55,0-1,.45-1,1s.45,1,1,1Z"/>
  <path class="cls-8" d="m9,6h.5c.55,0,1-.45,1-1s-.45-1-1-1h-.5c-.55,0-1,.45-1,1s.45,1,1,1Z"/>
  <path class="cls-8" d="m13,6h.5c.55,0,1-.45,1-1s-.45-1-1-1h-.5c-.55,0-1,.45-1,1s.45,1,1,1Z"/>
  <path class="cls-6" d="m24,12c0-.55-.45-1-1-1h-14c-.55,0-1,.45-1,1s.45,1,1,1h14c.55,0,1-.45,1-1Z"/>
  <path class="cls-7" d="m5,13h.5c.55,0,1-.45,1-1s-.45-1-1-1h-.5c-.55,0-1,.45-1,1s.45,1,1,1Z"/>
  <path class="cls-4" d="m8,16h-3c-.55,0-1,.45-1,1s.45,1,1,1h3c.55,0,1-.45,1-1s-.45-1-1-1Z"/>
  <path class="cls-5" d="m28,16h-1V4c0-1.65-1.35-3-3-3H4c-1.65,0-3,1.35-3,3v18c0,1.65,1.35,3,3,3h6v3c0,1.65,1.35,3,3,3h15c1.65,0,3-1.35,3-3v-9c0-1.65-1.35-3-3-3ZM4,3h20c.55,0,1,.45,1,1v3H3v-3c0-.55.45-1,1-1Zm0,20c-.55,0-1-.45-1-1v-13h22v7h-12c-1.65,0-3,1.35-3,3v4h-6Zm25,5c0,.55-.45,1-1,1h-15c-.55,0-1-.45-1-1v-9c0-.55.45-1,1-1h15c.55,0,1,.45,1,1v9Z"/>
  <path class="cls-2" d="m21.12,18.51c-.55-.06-1.05.32-1.12.87l-1,8c-.07.55.32,1.05.87,1.12.04,0,.08,0,.12,0,.5,0,.93-.37.99-.88l1-8c.07-.55-.32-1.05-.87-1.12Z"/>
  <path class="cls-3" d="m17.71,19.79c-.39-.39-1.02-.39-1.41,0l-3,3c-.39.39-.39,1.02,0,1.41l3,3c.2.2.45.29.71.29s.51-.1.71-.29c.39-.39.39-1.02,0-1.41l-2.29-2.29,2.29-2.29c.39-.39.39-1.02,0-1.41Z"/>
  <path class="cls-1" d="m24.71,19.79c-.39-.39-1.02-.39-1.41,0s-.39,1.02,0,1.41l2.29,2.29-2.29,2.29c-.39.39-.39,1.02,0,1.41.2.2.45.29.71.29s.51-.1.71-.29l3-3c.39-.39.39-1.02,0-1.41l-3-3Z"/>
</svg>